<?xml version="1.0" encoding="UTF-8" standalone="no"?>
<!-- Generator: Adobe Illustrator 16.0.0, SVG Export Plug-In . SVG Version: 6.00 Build 0)  -->

<svg
   xmlns:osb="http://www.openswatchbook.org/uri/2009/osb"
   xmlns:dc="http://purl.org/dc/elements/1.1/"
   xmlns:cc="http://creativecommons.org/ns#"
   xmlns:rdf="http://www.w3.org/1999/02/22-rdf-syntax-ns#"
   xmlns:svg="http://www.w3.org/2000/svg"
   xmlns="http://www.w3.org/2000/svg"
   xmlns:sodipodi="http://sodipodi.sourceforge.net/DTD/sodipodi-0.dtd"
   xmlns:inkscape="http://www.inkscape.org/namespaces/inkscape"
   version="1.1"
   id="Capa_1"
   x="0px"
   y="0px"
   width="459px"
   height="459px"
   viewBox="0 0 459 459"
   style="enable-background:new 0 0 459 459;"
   xml:space="preserve"
   inkscape:version="0.48.4 r9939"
   sodipodi:docname="appointmentsbooksi.svg"><metadata
     id="metadata3685"><rdf:RDF><cc:Work
         rdf:about=""><dc:format>image/svg+xml</dc:format><dc:type
           rdf:resource="http://purl.org/dc/dcmitype/StillImage" /><dc:title></dc:title></cc:Work></rdf:RDF></metadata><defs
     id="defs3683"><linearGradient
       osb:paint="solid"
       id="linearGradient4193"><stop
         id="stop4195"
         offset="0"
         style="stop-color:#000000;stop-opacity:1;" /></linearGradient><linearGradient
       osb:paint="solid"
       id="linearGradient5663"><stop
         id="stop5665"
         offset="0"
         style="stop-color:#ffffff;stop-opacity:1;" /></linearGradient><linearGradient
       osb:paint="solid"
       id="linearGradient4193-4"><stop
         id="stop4195-9"
         offset="0"
         style="stop-color:#000000;stop-opacity:1;" /></linearGradient><linearGradient
       osb:paint="solid"
       id="linearGradient5663-7"><stop
         id="stop5665-5"
         offset="0"
         style="stop-color:#ffffff;stop-opacity:1;" /></linearGradient><linearGradient
       osb:paint="solid"
       id="linearGradient4193-8"><stop
         id="stop4195-0"
         offset="0"
         style="stop-color:#000000;stop-opacity:1;" /></linearGradient><linearGradient
       osb:paint="solid"
       id="linearGradient5663-0"><stop
         id="stop5665-4"
         offset="0"
         style="stop-color:#ffffff;stop-opacity:1;" /></linearGradient><linearGradient
       id="linearGradient4193-7"><stop
         offset="0"
         style="stop-color:#000000;stop-opacity:1"
         id="stop4195-7" /></linearGradient><linearGradient
       id="linearGradient5663-06"><stop
         offset="0"
         style="stop-color:#ffffff;stop-opacity:1"
         id="stop5665-6" /></linearGradient></defs><sodipodi:namedview
     pagecolor="#ffffff"
     bordercolor="#666666"
     borderopacity="1"
     objecttolerance="10"
     gridtolerance="10"
     guidetolerance="10"
     inkscape:pageopacity="0"
     inkscape:pageshadow="2"
     inkscape:window-width="1301"
     inkscape:window-height="744"
     id="namedview3681"
     showgrid="false"
     inkscape:zoom="0.72713377"
     inkscape:cx="74.607972"
     inkscape:cy="239.24567"
     inkscape:window-x="65"
     inkscape:window-y="24"
     inkscape:window-maximized="1"
     inkscape:current-layer="g3065" /><g
     id="g3651" /><g
     id="g3653" /><g
     id="g3655" /><g
     id="g3657" /><g
     id="g3659" /><g
     id="g3661" /><g
     id="g3663" /><g
     id="g3665" /><g
     id="g3667" /><g
     id="g3669" /><g
     id="g3671" /><g
     id="g3673" /><g
     id="g3675" /><g
     id="g3677" /><g
     id="g3679" /><g
     id="layer1"
     transform="matrix(28.59922,0,0,28.59922,0.58889983,-0.3956908)"><g
       id="layer1-8"
       transform="matrix(0.25797632,0,0,0.25797632,-0.32481042,-0.27759543)"><g
         id="g3065"
         transform="matrix(2.4483175,0,0,2.4483175,0.28428268,0.06791737)"><path
           style="fill:#ffffff;fill-opacity:1;stroke:none"
           id="path4049-1"
           d="m 17.422238,11.708267 c 0.375633,0 0.681233,-0.305601 0.681233,-0.681233 V 9.8916448 c 0,-0.375633 -0.3056,-0.681233 -0.681233,-0.681233 h -0.454293 c -0.105498,-0.517623 -0.564242,-0.908311 -1.112543,-0.908311 h -5.495285 c -0.626053,0 -1.135386,0.509336 -1.135386,1.135386 v 0.249787 H 8.725159 c -0.125393,0 -0.227079,0.101665 -0.227079,0.227078 0,0.1254172 0.101686,0.2270792 0.227079,0.2270792 h 0.499572 v 1.816622 H 8.725159 c -0.125393,0 -0.227079,0.101662 -0.227079,0.227078 0,0.125414 0.101686,0.227076 0.227079,0.227076 h 0.499572 v 1.816622 H 8.725159 c -0.125393,0 -0.227079,0.101665 -0.227079,0.227079 0,0.125416 0.101686,0.227078 0.227079,0.227078 h 0.499572 v 1.816622 H 8.725159 c -0.125393,0 -0.227079,0.101662 -0.227079,0.227079 0,0.125413 0.101686,0.227075 0.227079,0.227075 h 0.499572 v 0.249786 c 0,0.626054 0.509333,1.13539 1.135386,1.13539 h 5.495285 c 0.548301,0 1.007045,-0.390688 1.112543,-0.908311 h 0.454293 c 0.375633,0 0.681233,-0.3056 0.681233,-0.681233 v -1.135389 c 0,-0.375632 -0.3056,-0.681233 -0.681233,-0.681233 h -0.431449 v -0.363327 h 0.431449 c 0.375633,0 0.681233,-0.3056 0.681233,-0.681232 v -1.13539 c 0,-0.375629 -0.3056,-0.681232 -0.681233,-0.681232 h -0.431449 v -0.363324 h 0.431449 z m 0.227076,-1.8166222 v 1.1353892 c 0,0.125211 -0.101865,0.227076 -0.227076,0.227076 H 16.990789 V 9.6645658 h 0.431449 c 0.125211,0 0.227076,0.101868 0.227076,0.227079 z m -1.793912,7.9931362 h -4.31448 v -1.816622 c 0,-0.125414 -0.101683,-0.227076 -0.227078,-0.227076 -0.125393,0 -0.227076,0.101662 -0.227076,0.227076 v 1.816622 h -0.726651 c -0.375632,0 -0.681232,-0.3056 -0.681232,-0.681233 v -0.249786 h 0.499572 c 0.125392,0 0.227076,-0.101662 0.227076,-0.227075 0,-0.125417 -0.101684,-0.227079 -0.227076,-0.227079 H 9.678885 v -1.816622 h 0.499572 c 0.125392,0 0.227076,-0.101662 0.227076,-0.227078 0,-0.125414 -0.101684,-0.227079 -0.227076,-0.227079 H 9.678885 v -1.816622 h 0.499572 c 0.125392,0 0.227076,-0.101662 0.227076,-0.227076 0,-0.125416 -0.101684,-0.227078 -0.227076,-0.227078 H 9.678885 v -1.816622 h 0.499572 c 0.125392,0 0.227076,-0.101662 0.227076,-0.2270792 0,-0.125413 -0.101684,-0.227078 -0.227076,-0.227078 H 9.678885 v -0.249787 c 0,-0.375629 0.3056,-0.681232 0.681232,-0.681232 h 0.726651 v 6.5373872 c 0,0.125417 0.101683,0.227079 0.227076,0.227079 0.125395,0 0.227078,-0.101662 0.227078,-0.227079 V 8.7562548 h 4.31448 c 0.375633,0 0.681233,0.305603 0.681233,0.681232 v 7.7660612 c 0,0.375633 -0.3056,0.681233 -0.681233,0.681233 z m 1.566836,-2.497855 c 0.125211,0 0.227076,0.101868 0.227076,0.227079 v 1.135389 c 0,0.125211 -0.101865,0.227076 -0.227076,0.227076 h -0.431449 v -1.589544 h 0.431449 z m 0,-2.861178 c 0.125211,0 0.227076,0.101864 0.227076,0.227075 v 1.13539 c 0,0.12521 -0.101865,0.227078 -0.227076,0.227078 h -0.431449 v -1.589543 h 0.431449 z"
           inkscape:connector-curvature="0" /><path
           style="fill:none;stroke:#ffffff;stroke-width:0.83089119;stroke-linecap:butt;stroke-linejoin:bevel;stroke-miterlimit:4;stroke-opacity:0.94063924;stroke-dasharray:0.83089123, 0.83089123;stroke-dashoffset:0;marker-start:none;marker-mid:none;marker-end:none"
           id="path4191"
           d="M 24.266863,12.88508 A 11.163483,11.093674 0.80720058 1 1 1.9470291,13.440864 11.163483,11.093674 0.80720058 0 1 24.266863,12.88508 z"
           inkscape:connector-curvature="0" /><g
           id="g7903"
           transform="matrix(0.99439048,0,0,0.99439048,-1635.5144,-2007.4872)"
           style="stroke:#ffffff;stroke-opacity:1"><path
             inkscape:connector-curvature="0"
             style="fill:none;stroke:#ffffff;stroke-width:0.49350691000000002;stroke-linejoin:round;stroke-miterlimit:4;stroke-opacity:1;stroke-dasharray:none"
             id="path3947-3"
             d="m 1670.246,2032.0247 a 12.360914,12.310118 0 1 1 -24.7218,0 12.360914,12.310118 0 1 1 24.7218,0 z" /><path
             inkscape:connector-curvature="0"
             style="fill:none;stroke:#ffffff;stroke-width:0.85864741000000000;stroke-linecap:butt;stroke-linejoin:bevel;stroke-miterlimit:4;stroke-opacity:1;stroke-dasharray:0.85864742999999999, 0.85864742999999999;stroke-dashoffset:0;marker-start:none;marker-mid:none;marker-end:none"
             id="path4191-0"
             d="m 1669.4014,2032.049 a 11.4801,11.520539 0 0 1 -22.9602,0 11.4801,11.520539 0 1 1 22.9602,0 z" /></g><g
           id="g8029"
           transform="matrix(0.0166038,0,0,0.0166038,9.4012875,9.4694141)"
           style="stroke:none;stroke-opacity:1;fill:#ffffff;fill-opacity:1"><path
             id="path7991"
             d="m 402.5,150 c 16.542,0 30,-13.458 30,-30 V 70 c 0,-16.542 -13.458,-30 -30,-30 H 382.494 C 377.848,17.205 357.646,0 333.5,0 h -242 c -27.57,0 -50,22.43 -50,50 v 11 h -22 c -5.522,0 -10,4.477 -10,10 0,5.523 4.478,10 10,10 h 22 v 80 h -22 c -5.522,0 -10,4.477 -10,10 0,5.523 4.478,10 10,10 h 22 v 80 h -22 c -5.522,0 -10,4.477 -10,10 0,5.523 4.478,10 10,10 h 22 v 80 h -22 c -5.522,0 -10,4.477 -10,10 0,5.523 4.478,10 10,10 h 22 v 11 c 0,27.57 22.43,50 50,50 h 242 c 24.146,0 44.348,-17.205 48.994,-40 H 402.5 c 16.542,0 30,-13.458 30,-30 v -50 c 0,-16.542 -13.458,-30 -30,-30 h -19 v -16 h 19 c 16.542,0 30,-13.458 30,-30 v -50 c 0,-16.542 -13.458,-30 -30,-30 h -19 v -16 h 19 z m 10,-80 v 50 c 0,5.514 -4.486,10 -10,10 h -19 V 60 h 19 c 5.514,0 10,4.486 10,10 z m -79,352 h -190 v -80 c 0,-5.523 -4.478,-10 -10,-10 -5.522,0 -10,4.477 -10,10 v 80 h -32 c -16.542,0 -30,-13.458 -30,-30 v -11 h 22 c 5.522,0 10,-4.477 10,-10 0,-5.523 -4.478,-10 -10,-10 h -22 v -80 h 22 c 5.522,0 10,-4.477 10,-10 0,-5.523 -4.478,-10 -10,-10 h -22 v -80 h 22 c 5.522,0 10,-4.477 10,-10 0,-5.523 -4.478,-10 -10,-10 h -22 V 81 h 22 c 5.522,0 10,-4.477 10,-10 0,-5.523 -4.478,-10 -10,-10 h -22 V 50 c 0,-16.542 13.458,-30 30,-30 h 32 v 287.892 c 0,5.523 4.478,10 10,10 5.522,0 10,-4.477 10,-10 V 20 h 190 c 16.542,0 30,13.458 30,30 v 342 c 0,16.542 -13.458,30 -30,30 z m 69,-110 c 5.514,0 10,4.486 10,10 v 50 c 0,5.514 -4.486,10 -10,10 h -19 v -70 h 19 z m 0,-126 c 5.514,0 10,4.486 10,10 v 50 c 0,5.514 -4.486,10 -10,10 h -19 v -70 h 19 z"
             inkscape:connector-curvature="0"
             style="stroke:none;stroke-opacity:1;fill:#ffffff;fill-opacity:1" /><g
             id="g7993"
             style="stroke:none;stroke-opacity:1;fill:#ffffff;fill-opacity:1" /><g
             id="g7995"
             style="stroke:none;stroke-opacity:1;fill:#ffffff;fill-opacity:1" /><g
             id="g7997"
             style="stroke:none;stroke-opacity:1;fill:#ffffff;fill-opacity:1" /><g
             id="g7999"
             style="stroke:none;stroke-opacity:1;fill:#ffffff;fill-opacity:1" /><g
             id="g8001"
             style="stroke:none;stroke-opacity:1;fill:#ffffff;fill-opacity:1" /><g
             id="g8003"
             style="stroke:none;stroke-opacity:1;fill:#ffffff;fill-opacity:1" /><g
             id="g8005"
             style="stroke:none;stroke-opacity:1;fill:#ffffff;fill-opacity:1" /><g
             id="g8007"
             style="stroke:none;stroke-opacity:1;fill:#ffffff;fill-opacity:1" /><g
             id="g8009"
             style="stroke:none;stroke-opacity:1;fill:#ffffff;fill-opacity:1" /><g
             id="g8011"
             style="stroke:none;stroke-opacity:1;fill:#ffffff;fill-opacity:1" /><g
             id="g8013"
             style="stroke:none;stroke-opacity:1;fill:#ffffff;fill-opacity:1" /><g
             id="g8015"
             style="stroke:none;stroke-opacity:1;fill:#ffffff;fill-opacity:1" /><g
             id="g8017"
             style="stroke:none;stroke-opacity:1;fill:#ffffff;fill-opacity:1" /><g
             id="g8019"
             style="stroke:none;stroke-opacity:1;fill:#ffffff;fill-opacity:1" /><g
             id="g8021"
             style="stroke:none;stroke-opacity:1;fill:#ffffff;fill-opacity:1" /></g></g></g></g></svg>