<?xml version="1.0" encoding="UTF-8" standalone="no"?>
<!-- Generator: Adobe Illustrator 16.0.0, SVG Export Plug-In . SVG Version: 6.00 Build 0)  -->

<svg
   xmlns:dc="http://purl.org/dc/elements/1.1/"
   xmlns:cc="http://creativecommons.org/ns#"
   xmlns:rdf="http://www.w3.org/1999/02/22-rdf-syntax-ns#"
   xmlns:svg="http://www.w3.org/2000/svg"
   xmlns="http://www.w3.org/2000/svg"
   xmlns:sodipodi="http://sodipodi.sourceforge.net/DTD/sodipodi-0.dtd"
   xmlns:inkscape="http://www.inkscape.org/namespaces/inkscape"
   version="1.1"
   id="Capa_1"
   x="0px"
   y="0px"
   width="459px"
   height="459px"
   viewBox="0 0 459 459"
   style="enable-background:new 0 0 459 459;"
   xml:space="preserve"
   inkscape:version="0.48.4 r9939"
   sodipodi:docname="problems-with-synchronization.svg"><metadata
     id="metadata6991"><rdf:RDF><cc:Work
         rdf:about=""><dc:format>image/svg+xml</dc:format><dc:type
           rdf:resource="http://purl.org/dc/dcmitype/StillImage" /><dc:title></dc:title></cc:Work></rdf:RDF></metadata><defs
     id="defs6989" /><sodipodi:namedview
     pagecolor="#ffffff"
     bordercolor="#666666"
     borderopacity="1"
     objecttolerance="10"
     gridtolerance="10"
     guidetolerance="10"
     inkscape:pageopacity="0"
     inkscape:pageshadow="2"
     inkscape:window-width="1301"
     inkscape:window-height="744"
     id="namedview6987"
     showgrid="false"
     inkscape:zoom="0.51416122"
     inkscape:cx="229.5"
     inkscape:cy="229.5"
     inkscape:window-x="65"
     inkscape:window-y="24"
     inkscape:window-maximized="1"
     inkscape:current-layer="Capa_1" /><g
     id="g6952"><g
       id="sync-problem"><path
         d="M0,229.5c0,56.1,22.95,107.1,61.2,142.8L0,433.5h153v-153l-56.1,56.1C68.85,311.1,51,272.85,51,229.5    c0-66.3,43.35-122.4,102-145.35v-51C66.3,56.1,0,135.15,0,229.5z M204,357h51v-51h-51V357z M459,25.5H306v153l56.1-56.1    c28.051,25.5,45.9,63.75,45.9,107.1c0,66.3-43.35,122.4-102,145.35V428.4c86.7-22.95,153-102,153-196.351    c0-56.1-22.95-107.1-61.2-142.8L459,25.5z M204,255h51V102h-51V255z"
         id="path6955" /></g></g><g
     id="g6957" /><g
     id="g6959" /><g
     id="g6961" /><g
     id="g6963" /><g
     id="g6965" /><g
     id="g6967" /><g
     id="g6969" /><g
     id="g6971" /><g
     id="g6973" /><g
     id="g6975" /><g
     id="g6977" /><g
     id="g6979" /><g
     id="g6981" /><g
     id="g6983" /><g
     id="g6985" /></svg>